<?xml version="1.0" encoding="UTF-8" standalone="no"?>
<!-- Created with Inkscape (http://www.inkscape.org/) -->

<svg
   version="1.1"
   id="svg1"
   width="197.33333"
   height="513.33331"
   viewBox="0 0 197.33333 513.33331"
   sodipodi:docname="ship3.svg"
   inkscape:version="1.3 (0e150ed6c4, 2023-07-21)"
   xmlns:inkscape="http://www.inkscape.org/namespaces/inkscape"
   xmlns:sodipodi="http://sodipodi.sourceforge.net/DTD/sodipodi-0.dtd"
   xmlns="http://www.w3.org/2000/svg"
   xmlns:svg="http://www.w3.org/2000/svg">
  <defs
     id="defs1" />
  <sodipodi:namedview
     id="namedview1"
     pagecolor="#ffffff"
     bordercolor="#111111"
     borderopacity="1"
     inkscape:showpageshadow="0"
     inkscape:pageopacity="0"
     inkscape:pagecheckerboard="1"
     inkscape:deskcolor="#d1d1d1"
     inkscape:zoom="1.6655845"
     inkscape:cx="98.764129"
     inkscape:cy="256.66666"
     inkscape:window-width="1920"
     inkscape:window-height="1111"
     inkscape:window-x="-9"
     inkscape:window-y="-9"
     inkscape:window-maximized="1"
     inkscape:current-layer="g1" />
  <g
     inkscape:groupmode="layer"
     inkscape:label="Image"
     id="g1">
    <g
       id="g2"
       transform="translate(10.807015,15.009746)">
      <path
         style="fill:#b9b9b9;fill-opacity:1"
         d="M 52.714205,453.02751 C 46.327669,431.0586 39.792876,386.64067 37.363919,348.68941 c -0.750156,-11.72082 -1.36392,-52.67082 -1.36392,-91 v -69.68942 h -6 -6 v -19.33333 -19.33333 h 5.818014 5.818014 l 0.721459,-23 C 37.121402,101.97983 39.284773,87.823418 44.655758,72.032066 48.872706,59.633725 58.156867,42.192735 65.888287,32.145176 72.695258,23.299007 87.555876,9.333333 90.16195,9.333333 c 2.652445,0 19.34164,17.095246 25.38243,25.999999 17.6348,25.995489 24.21441,48.88191 25.37593,88.267258 l 0.75499,25.60059 6.16235,0.39941 6.16235,0.3994 0.41489,19 0.41488,19 h -6.64113 -6.64113 l -0.58284,88.33333 c -0.45851,69.49215 -1.05081,92.74146 -2.77689,109 -2.31494,21.80533 -7.73527,56.12166 -10.63542,67.33333 l -1.72448,6.66667 -35.529205,0.38203 -35.529201,0.38204 z M 122.3626,435.66665 c 6.70246,-35.60124 9.54794,-66.87583 10.55411,-116 l 0.81246,-39.66666 h -3.32276 -3.32276 l -0.90437,33.66666 c -1.00663,37.4731 -2.58136,61.4733 -5.6646,86.33333 -2.13101,17.18223 -5.38022,37.53892 -6.65543,41.69703 -0.66371,2.16418 -2.70569,2.333 -24.192425,2 l -23.467532,-0.36369 -1.690402,-7.33334 C 57.41809,405.23853 53.297579,365.45622 52.390445,318.99999 l -0.761538,-39 h -4.027664 -4.027664 l 0.850207,34.33333 c 1.213854,49.01823 5.702093,91.3978 13.082049,123.5254 l 2.942078,12.80793 h 29.54536 29.545357 z m -14.96866,-13.60606 c 3.25189,-3.2519 3.27245,-3.43648 3.23032,-29 -0.054,-32.74901 -0.25478,-33.0606 -21.305838,-33.0606 -11.695622,0 -12.34835,0.15813 -16.087655,3.89743 l -3.897435,3.89744 v 24.87179 24.87179 l 3.897435,3.89744 c 3.794317,3.79432 4.254529,3.89744 17.393939,3.89744 12.551844,0 13.725574,-0.22907 16.769234,-3.27273 z M 73.333331,289.33332 c 0,-42.78971 -0.362102,-54.68896 -1.666666,-54.76928 -0.916667,-0.0564 -3.616711,-0.20644 -6.000098,-0.33334 l -4.333431,-0.23071 9.8e-5,55 9.8e-5,55 h 6 5.999999 z m 42.971649,-0.39518 -0.36168,-55.06273 -4.63832,0.5415 -4.63832,0.5415 v 54.52079 54.52079 l 5,4.3e-4 5,4.4e-4 z M 51.999999,238.57346 v -29.42653 l 14.333333,0.42653 14.333333,0.42653 0.359336,29 0.359336,29 h 7.281327 7.281327 l 0.359337,-29 0.359336,-29 H 111.33333 126 l 0.35933,29 0.35934,29 h 3.30733 3.30733 v -44 -44 h 6 6 v -10.43574 -10.43574 l -3.89059,0.57101 c -2.27872,0.33445 -7.42291,-0.84213 -12.41661,-2.83993 -20.53091,-8.21365 -64.489724,-7.86871 -81.306347,0.63801 -2.720785,1.37632 -7.370785,2.50239 -10.333333,2.50239 h -5.386451 v 10 10 h 6 6 v 44 44 h 4 4 z m 34.333332,-66.68027 c -2.694855,-1.5696 -3.054107,-5.30576 -0.733333,-7.62653 4.48257,-4.48257 10.584475,0.97301 6.927649,6.19386 -2.257195,3.2226 -2.875629,3.36563 -6.194316,1.43267 z M 48.603928,147.78597 c 3.389698,-1.54445 3.396071,-1.5804 3.396071,-19.15867 0,-28.37655 4.416419,-48.355056 15.465391,-69.960636 5.338398,-10.438906 19.502844,-29.333332 21.990104,-29.333332 1.804178,0 12.279696,12.872359 17.534276,21.546181 12.01627,19.835491 17.9253,42.907686 19.03178,74.310927 0.39773,11.28808 0.99624,20.96566 1.33002,21.50573 0.33378,0.54007 1.89507,1.31881 3.46954,1.73055 l 2.86268,0.7486 -0.68425,-24.25433 C 132.01546,90.038592 126.84436,69.920512 112.76138,46.184802 106.8374,36.200426 92.786824,19.999999 90.051382,19.999999 c -2.704929,0 -19.696283,18.635826 -25.096263,27.525153 -10.38753,17.099718 -17.085749,37.554181 -19.585372,59.808178 -1.351845,12.0354 -1.898213,42 -0.765819,42 0.332161,0 2.132161,-0.69631 4,-1.54736 z"
         id="path8" />
      <path
         style="fill:#a3a3a3;fill-opacity:1"
         d="m 54.244929,457.66665 c -1.366457,-2.35956 -7.722006,-31.6749 -10.189574,-47 -6.057809,-37.62269 -6.974042,-54.37415 -7.675631,-140.33333 l -0.671996,-82.33333 h -5.853864 -5.853865 v -19.33333 -19.33333 h 6 6 l 0.02603,-16.33334 C 36.100083,86.532567 48.12046,51.174068 73.155598,23.781639 76.824191,19.767613 82.233831,14.814621 85.177019,12.774991 l 5.351251,-3.7084198 5.472319,4.4667138 c 9.285491,7.57917 22.407191,25.085248 29.332471,39.13338 11.23973,22.800136 15.97923,45.817386 15.99241,77.666665 l 0.008,19 h 6 6 v 19.33333 19.33333 h -5.87881 -5.87882 l -0.61428,87.66667 c -0.48103,68.65048 -1.08993,92.14956 -2.80707,108.33332 -2.36762,22.3143 -6.23347,47.84077 -9.74297,64.33334 l -2.19885,10.33333 H 90.518285 c -19.631833,0 -35.954843,-0.45 -36.273356,-1 z m 68.249961,-22 c 6.98433,-37.63131 9.54997,-65.91965 10.4603,-115.33333 l 0.74304,-40.33333 h -4.00758 -4.00758 l -0.73253,43.66666 c -0.82713,49.30671 -3.95839,83.59114 -10.36132,113.44695 l -1.47686,6.88638 H 89.940904 66.769449 l -1.308702,-5 C 57.675838,409.25712 52.015123,353.44367 52.005421,306.33332 l -0.0054,-26.33333 h -4 -4 l 0.0062,21.66666 c 0.01392,48.6921 5.286286,100.78746 14.168838,140 l 2.038709,9 h 29.748584 29.748588 z m -15.10095,-13.60606 c 3.24464,-3.24464 3.27272,-3.48971 3.27272,-28.55762 0,-13.90668 -0.3727,-26.25615 -0.82824,-27.44325 -1.60577,-4.18457 -7.89884,-6.05973 -20.336575,-6.05973 -10.92578,0 -12.319878,0.29952 -16.066213,3.45185 l -4.1023,3.45186 v 25.68678 c 0,25.41784 0.03423,25.72371 3.269668,29.21481 3.139289,3.38735 3.832877,3.52803 17.393939,3.52803 13.218361,0 14.334181,-0.20991 17.397001,-3.27273 z M 73.333331,288.66666 v -55.33334 h -5.999999 -6 v 55.33334 55.33333 h 6 5.999999 z m 43.681459,0.33333 -0.34813,-55 H 111.33333 106 l -0.34813,55 -0.34812,55 h 6.02958 6.02958 z M 51.999999,239.33332 v -28.66666 h 14.666666 14.666666 v 28.7332 28.73321 l 7.666667,-0.39988 7.666666,-0.39987 0.35985,-28.33333 0.359851,-28.33333 h 14.640145 14.64015 v 28.66666 28.66667 H 130 h 3.33333 v -44 -44 h 6 6 v -10.66666 -10.66667 h -6.06621 c -3.33642,0 -7.73102,-0.8609 -9.76578,-1.91312 -2.03477,-1.05222 -9.05497,-2.92583 -15.60046,-4.16359 -19.800464,-3.74428 -60.909991,-0.76951 -66.500881,4.81214 -0.696667,0.69551 -4.446667,1.26457 -8.333333,1.26457 h -7.066667 v 10.66667 10.66666 h 6 6 v 44 44 h 4 4 z m 34.039198,-67.80645 c -2.709511,-1.98124 -2.316374,-5.98008 0.77957,-7.9295 3.193868,-2.01107 6.514564,-0.15197 6.514564,3.6472 0,4.27286 -4.052958,6.6523 -7.294134,4.2823 z m -37.644158,-23.4236 c 3.212284,-1.22131 3.240431,-1.39446 3.955529,-24.33334 0.583828,-18.72797 1.353407,-25.532098 4.06368,-35.928447 5.613261,-21.531937 16.492275,-41.918232 28.600178,-53.594166 l 5.27418,-5.086015 5.656388,6.419348 c 19.388626,22.003851 29.388336,52.88192 29.388336,90.7481 v 19.90987 l 3.39607,1.54735 c 1.86784,0.85105 3.66784,1.54736 4,1.54736 1.5261,0 0.39485,-40.56288 -1.45022,-52.000001 C 126.89491,70.156312 115.39587,45.604825 98.629324,27.62294 l -8.704007,-9.334927 -8.277032,8.277032 C 61.919361,46.293969 49.386699,73.636941 45.362408,105.73128 c -1.334769,10.64499 -1.926262,43.60205 -0.782542,43.60205 0.318927,0 2.035755,-0.55353 3.815173,-1.23006 z"
         id="path7" />
      <path
         style="fill:#8c8c8c;fill-opacity:1"
         d="m 53.977557,456.99998 c -1.830085,-5.03809 -7.451119,-31.97388 -9.808089,-47 -6.411934,-40.87724 -8.141462,-74.44707 -8.157385,-158.33332 l -0.01208,-63.66667 h -6 -6 v -19.33333 -19.33333 h 5.791883 5.791884 l 0.820605,-22.33334 C 37.612243,94.126922 41.362213,77.295003 52.667981,53.999998 62.700889,33.327661 85.99076,7.4506197 91.776518,10.547063 c 4.479479,2.397345 19.420592,18.787006 25.676752,28.166129 11.18502,16.768363 19.43251,40.206459 22.50421,63.953468 0.71143,5.5 1.31204,18.25 1.33468,28.33333 l 0.0412,18.33334 h 6 6 v 19.33333 19.33333 h -5.88406 -5.88405 l -0.61363,86.33333 c -0.70638,99.38144 -1.83961,116.24712 -11.15375,166 l -3.43214,18.33333 H 90.474334 c -27.501312,0 -36.032885,-0.38961 -36.496777,-1.66667 z m 66.034993,-7.33333 c 0.007,-0.55 1.16129,-6.7 2.56532,-13.66667 6.59803,-32.73893 10.75546,-81.41085 10.75546,-125.91651 v -30.08348 h -3.82364 -3.82364 l -0.73657,43 c -0.82625,48.23567 -3.87746,81.70416 -10.39299,113.99999 l -1.41222,7 H 89.995318 c -20.890727,0 -23.217326,-0.22762 -23.849842,-2.33333 -2.139525,-7.12271 -6.453686,-31.97871 -8.760368,-50.47279 -3.61707,-29.00028 -5.385109,-57.44371 -5.385109,-86.63327 v -24.5606 h -4.198587 -4.198587 l 0.815371,36.33333 c 1.115767,49.7191 5.400601,89.93255 13.070409,122.66666 l 2.733573,11.66667 h 29.88891 c 16.438902,0 29.894552,-0.45 29.901462,-1 z m -12.50171,-27.48115 3.65955,-3.14781 0.52917,-22.51885 c 0.80057,-34.06826 -0.60782,-36.46434 -21.453884,-36.4992 -20.551083,-0.0344 -20.816116,0.38523 -20.86994,33.04095 -0.04214,25.56352 -0.02157,25.7481 3.230323,29 3.058754,3.05875 4.187156,3.27273 17.258981,3.27273 12.77657,0 14.30277,-0.27226 17.6458,-3.14782 z M 73.333331,288.66666 v -55.33334 h -5.999999 -6 v 55.33334 55.33333 h 6 5.999999 z m 43.681459,0.33333 -0.34813,-55 H 111.33333 106 l -0.34813,55 -0.34812,55 h 6.02958 6.02958 z M 51.999999,239.33332 v -28.66666 h 14.666666 14.666666 v 28.66666 28.66667 h 8 8 V 239.33332 210.66666 H 112 126.66666 v 28.66666 28.66667 h 3.31512 3.31511 l 0.35155,-43.66667 0.35156,-43.66666 5.66666,-0.41 5.66667,-0.40999 v -10.59001 -10.59 h -5.83051 c -3.20678,0 -8.45678,-1.15283 -11.66667,-2.56185 -15.44666,-6.7805 -55.930635,-7.27215 -74.884866,-0.90943 -5.687419,1.9092 -12.72813,3.47128 -15.646023,3.47128 h -5.305262 v 10.66667 10.66666 h 6 6 v 44 44 h 4 4 z M 84.64408,169.26217 c -1.272701,-4.00993 2.484749,-7.79806 5.714269,-5.76093 1.269573,0.80083 2.308315,2.89066 2.308315,4.64407 0,4.46731 -6.664711,5.39514 -8.022584,1.11686 z M 48.392476,148.10424 c 3.198244,-1.21597 3.241218,-1.46853 4.026962,-23.66666 0.439831,-12.42571 1.721514,-26.536119 2.872378,-31.622802 5.101533,-22.548174 14.617587,-41.932173 27.426181,-55.866542 l 7.384666,-8.03372 6.120253,7.209408 c 7.970884,9.389375 13.478924,18.514274 18.522414,30.685156 7.38008,17.809514 9.40593,28.844449 10.21203,55.62559 0.73304,24.35402 0.74616,24.43874 3.97585,25.66667 1.78221,0.67759 3.50133,1.23199 3.82025,1.23199 1.55365,0 0.37964,-42.1397 -1.47171,-52.825347 C 126.57995,69.370049 115.25462,45.224676 99.242538,28.201064 L 89.818411,18.181586 81.730684,26.269313 C 56.393503,51.606494 44.028108,86.155334 44.007859,131.66666 c -0.0043,9.71667 0.25308,17.66667 0.572007,17.66667 0.318927,0 2.034601,-0.55309 3.81261,-1.22909 z"
         id="path6" />
      <path
         style="fill:#767676;fill-opacity:1"
         d="M 53.546592,454.35488 C 49.021262,439.66013 43.98605,411.94287 40.76568,383.99998 37.442501,355.16502 36.049649,315.7053 36.023974,249.66666 l -0.02398,-61.66667 h -6 -6 v -19.33333 -19.33333 h 6 6 l 0.0114,-11.66667 C 36.0633,84.573975 48.996331,47.856473 77.552284,19.730081 89.783485,7.682872 89.250509,7.7175309 100.1817,18.258515 c 27.86718,26.872406 41.15163,64.003551 41.15163,115.022265 v 16.05255 h 6 6 v 19.33333 19.33333 h -6 -6 v 72.35609 c 0,98.56692 -3.3389,144.88466 -13.71887,190.31057 l -1.6757,7.33333 -35.525524,0.3549 -35.525528,0.35491 z M 121.281,443.66665 c 7.21701,-33.63507 10.81503,-70.84309 11.66848,-120.66666 l 0.73657,-43 h -4.17636 -4.17636 v 30.08348 c 0,43.28346 -3.69177,87.92832 -10.10907,122.24985 l -2.18139,11.66666 H 89.96164 66.880408 l -2.005034,-9 C 56.991998,399.61386 53.622952,367.47628 52.435315,316.33332 l -0.84373,-36.33333 h -3.986004 -3.986005 l 0.788703,37 c 1.110217,52.08309 4.658838,85.03637 13.13774,121.99999 l 2.676159,11.66667 h 29.778424 29.778428 z m -13.18009,-21.77041 c 3.12913,-3.32725 3.24588,-4.18504 3.65378,-26.84467 0.6009,-33.38109 -0.38964,-35.05158 -20.784247,-35.05158 -12.921614,0 -19.183253,1.82344 -20.80887,6.05973 -0.455533,1.1871 -0.828241,13.53657 -0.828241,27.44325 0,25.06791 0.02808,25.31298 3.272727,28.55762 3.073351,3.07335 4.155761,3.27273 17.767581,3.27273 13.853,0 14.63799,-0.1522 17.72727,-3.43708 z M 73.333331,288.66666 v -55.33334 h -5.999999 -6 v 55.33334 55.33333 h 6 5.999999 z m 43.999999,0 v -55.33334 h -6 -6 v 55.33334 55.33333 h 6 6 z M 51.999999,239.33332 v -28.66666 h 14.666666 14.666666 v 28.66666 28.66667 h 8 8 V 239.33332 210.66666 H 112 126.66666 v 28.66666 28.66667 h 3.31512 3.31511 l 0.35155,-43.66667 0.35156,-43.66666 5.66666,-0.41 5.66667,-0.40999 v -10.59001 -10.59 h -6.4 c -3.52,0 -6.97,-0.54553 -7.66667,-1.21228 -3.42874,-3.28153 -16.9781,-5.74399 -35.266662,-6.40938 -20.324647,-0.73947 -34.488532,0.69346 -44.362527,4.48806 -3.100609,1.19157 -8.787472,2.43962 -12.637472,2.77345 l -7,0.60695 v 10.54327 10.54326 h 6 6 v 44 44 h 4 4 z m 33.400824,-69.252 c -3.373142,-4.06439 1.949443,-9.38698 6.013831,-6.01383 2.849164,2.36459 1.887949,7.17498 -1.53133,7.66351 -1.530838,0.21872 -3.547963,-0.52363 -4.482501,-1.64968 z M 49.420987,147.95308 c 2.323732,-1.24362 2.57979,-2.92634 2.586872,-17 0.01972,-39.179598 10.903674,-72.417316 30.86594,-94.259215 l 7.042486,-7.705602 4.50883,5.172534 c 20.943525,24.026434 30.908215,54.346781 30.908215,94.046853 v 18.52501 l 3.42013,1.30034 c 1.88108,0.71518 3.75113,1.30033 4.15568,1.30033 0.40455,0 0.44501,-11.85 0.0899,-26.33333 -0.55627,-22.68835 -1.11879,-28.124608 -4.06393,-39.274419 -6.113,-23.142815 -17.66856,-44.196708 -31.878945,-58.082488 L 89.868406,18.619521 84.44653,23.260444 C 70.432389,35.256027 54.944872,61.832184 49.438465,83.33333 c -4.086889,15.958278 -5.382818,27.37217 -5.412055,47.66666 -0.02721,18.8858 0.23625,19.71375 5.394577,16.95309 z"
         id="path5" />
      <path
         style="fill:#606060;fill-opacity:1"
         d="m 53.4427,453.68832 c -5.340665,-20.03786 -9.35196,-42.34819 -13.009093,-72.355 -1.765676,-14.48739 -2.301881,-35.10771 -2.747723,-105.66666 l -0.553941,-87.66667 h -6.565972 -6.565972 v -18.59361 -18.59361 l 6.333334,-0.40639 6.333333,-0.40639 0.863207,-26.66666 C 38.486663,93.775681 40.334384,83.718644 48.552416,63.338269 56.176577,44.430668 73.117282,21.474463 86.250524,12.253883 l 4.250527,-2.9842072 8.874959,8.3020892 c 28.06616,26.254513 41.95732,65.049155 41.95732,117.176605 v 16.18681 l 6,-0.4772 6,-0.4772 v 19.00961 19.0096 h -5.86237 -5.86237 l -0.66306,84.33333 c -0.49177,62.5478 -1.20987,90.01651 -2.77983,106.33333 -2.39886,24.93174 -6.45961,52.91963 -9.96281,68.66667 l -2.37299,10.66666 -35.524388,0.35501 -35.524392,0.355 z m 66.401,-4.06296 c 1.90393,-3.55752 7.85,-40.89802 10.13166,-63.62538 2.24741,-22.38622 4.67259,-69.84857 4.68389,-91.66666 l 0.007,-14.33333 h -4.4714 -4.47141 l -0.80337,41 c -0.91023,46.45355 -4.70758,88.32648 -10.45929,115.33333 l -1.34883,6.33333 H 89.914915 66.71747 l -0.825777,-3.66667 C 65.437515,436.98332 64.545902,433.23332 63.91033,430.66665 58.296588,407.99636 53.47416,359.24188 52.403508,314.33332 l -0.818531,-34.33333 h -3.97959 -3.979589 l 0.778245,38.33333 c 0.764747,37.66851 2.675231,62.26594 6.973281,89.78082 2.734679,17.50662 7.185256,38.50156 8.808439,41.55251 1.123113,2.11101 3.963804,2.33333 29.814235,2.33333 26.036892,0 28.685632,-0.21075 29.843702,-2.37462 z m -12.20591,-27.32235 3.69554,-3.69697 V 392.5209 366.43576 l -3.74102,-3.21789 c -3.41582,-2.93816 -4.90121,-3.21788 -17.087653,-3.21788 -7.34065,0 -14.557986,0.64829 -16.038525,1.44065 -5.192782,2.77909 -6.466134,9.0642 -6.466134,31.91607 0,30.7513 2.134523,33.64857 24.304459,32.98933 10.715543,-0.31863 11.930653,-0.63903 15.333333,-4.04303 z M 73.333331,289.26027 v -56.07306 l -6.333333,0.40639 -6.333333,0.40639 -0.348745,53.99825 c -0.191809,29.69903 -0.06064,54.74903 0.291487,55.66666 0.382207,0.99602 3.075207,1.66842 6.682078,1.66842 h 6.041846 z m 43.681299,-0.26028 0.34796,-55.66667 h -6.01463 -6.01463 v 55.11111 c 0,30.31111 0.42856,55.53967 0.95235,56.06346 0.52379,0.52379 3.07378,0.77379 5.66666,0.55555 l 4.71432,-0.39679 z M 51.999999,239.33332 v -28.66666 l 14.333333,-0.001 14.333333,-0.001 -0.383848,28.66791 -0.383848,28.66791 h 8.717181 8.717181 v -28.66667 -28.66666 l 14.333329,-0.001 14.33334,-10e-4 -0.38385,28.66791 -0.38385,28.66791 h 4.71718 4.71718 l -0.002,-43.66667 -0.002,-43.66666 h 5.6684 H 146 v -10.66667 -10.66666 l -6.66667,-0.71729 c -3.66667,-0.3945 -7.89827,-1.40225 -9.40357,-2.23943 -11.90694,-6.62218 -60.051121,-7.72761 -75.929761,-1.74343 -4.4,1.65823 -11.15,3.29966 -15,3.64762 l -7,0.63266 v 11.20993 11.20994 h 6 6 v 43.33333 43.33333 h 4 4 z m 33.404067,-69.2481 c -1.1991,-1.44482 -1.217089,-2.60991 -0.0733,-4.7471 1.699153,-3.1749 5.023569,-3.10565 7.071848,0.14731 3.084521,4.89866 -3.279269,9.08125 -6.99855,4.59979 z M 48.999999,148.49295 c 2.8678,-0.76854 3,-1.41637 3,-14.70102 0,-29.05607 4.640519,-52.483559 14.164644,-71.509692 5.476252,-10.939786 14.343548,-23.829492 20.218511,-29.390092 l 3.987908,-3.774519 6.8353,8.441186 c 18.792778,23.207951 28.101318,53.683764 28.119108,92.060937 0.007,15.39191 0.24536,17.08019 2.58687,18.33333 5.91673,3.16654 6.75628,2.04867 6.72407,-8.95309 C 134.53606,104.72441 129.48399,78.559806 118.70495,56.491108 112.00861,42.781212 98.964393,24.915705 92.611366,20.753043 l -3.452665,-2.262274 -8.971985,9.133585 C 64.757684,43.331287 54.978094,61.47784 48.367472,86.666663 c -2.774128,10.570417 -3.43953,16.803997 -4.020716,37.666667 -0.39173,14.06178 -0.182416,24.99203 0.478399,24.98179 0.646164,-0.01 2.524844,-0.37999 4.174844,-0.82217 z"
         id="path4" />
      <path
         style="fill:#494949;fill-opacity:1"
         d="m 54.666665,458.21327 c 0,-0.24937 -1.216795,-5.19937 -2.703989,-11 C 48.089097,432.10479 44.324747,410.64715 41.106971,385.33332 38.589419,365.52807 38.250947,354.58759 37.714147,275.66666 L 37.11786,187.99999 h -6.55893 -6.558931 v -18.59361 -18.59361 l 6.333334,-0.40639 6.333333,-0.40639 0.812628,-25.33333 C 38.531834,91.854167 42.027515,75.867399 52.899013,54.147797 59.735986,40.488563 67.5655,30.018279 79.223915,18.943925 L 89.447184,9.2328192 93.06094,11.80604 c 5.753284,4.0967 16.59018,16.129633 22.84726,25.368848 17.32309,25.579323 25.42513,57.14497 25.42513,99.056672 v 14.4351 h 6 6 v 18.66667 18.66666 h -5.85469 -5.85469 l -0.69798,83 c -0.3839,45.65 -1.34768,90.2 -2.14175,99 -3.01971,33.46502 -7.98486,67.39056 -12.24497,83.66666 l -1.3087,5 H 89.948606 c -19.405068,0 -35.281941,-0.20402 -35.281941,-0.45338 z m 65.338495,-6.54662 c 0.003,-0.18333 1.47252,-7.83333 3.26597,-17 6.42364,-32.8325 11.38822,-92.81896 11.39352,-137.66666 l 0.002,-17 h -4.46874 -4.46875 l -0.81246,39.66666 c -0.97089,47.40158 -3.58131,77.20581 -9.75121,111.33333 l -2.10921,11.66667 H 89.968349 66.880408 L 64.796977,433.5065 C 58.029859,403.75376 53.746415,362.19873 52.471145,313.92975 l -0.896426,-33.92976 h -3.964506 -3.964507 l 0.750241,39 c 0.965463,50.18798 4.669712,85.43341 12.471708,118.66666 l 3.364962,14.33333 h 29.88369 c 16.436033,0 29.886013,-0.15 29.888853,-0.33333 z M 108.111,421.64561 112,417.29125 v -24.54333 c 0,-24.45901 -0.0119,-24.55743 -3.45186,-28.64563 l -3.45186,-4.1023 H 90.844814 c -22.468422,0 -23.210056,1.1492 -22.599512,35.01918 0.381411,21.15885 0.674205,23.65586 3.088029,26.33537 4.129418,4.58394 7.048138,5.29157 20.444333,4.95661 12.207876,-0.30525 12.518226,-0.3939 16.333336,-4.66554 z M 73.333331,289.33332 v -56 h -6.666666 -6.666667 v 55.11111 c 0,30.31111 0.4,55.51111 0.888889,56 0.488889,0.48889 3.488889,0.88889 6.666667,0.88889 h 5.777777 z m 43.999999,0 v -56 h -6 -6 v 56 56 h 6 6 z m -65.333331,-50 v -28.66666 h 13.999999 14 v 28.66666 28.66667 h 8.666666 8.666667 v -28.66667 -28.66666 h 13.999999 14 v 28.66666 28.66667 H 130 h 4.66666 v -43.25667 -43.25667 l 5.66667,-0.40999 5.66667,-0.41 0.38521,-10.87359 0.38521,-10.87359 -7.05188,-0.63567 c -3.87853,-0.34961 -10.65188,-2.00298 -15.05188,-3.67414 -6.73407,-2.55766 -11.34308,-3.13575 -29.126515,-3.65326 -23.125725,-0.67297 -38.300685,1.02148 -46.487029,5.1908 -2.720785,1.3857 -7.670785,2.51945 -11,2.51945 h -6.053117 v 11.33333 11.33334 h 6 6 v 43.33333 43.33333 h 4 4 z m 33.382887,-69.9074 c -1.039646,-1.9426 -0.864891,-3.08678 0.71235,-4.66402 1.577241,-1.57724 2.721426,-1.752 4.664023,-0.71235 2.743515,1.46828 3.051578,2.48798 1.764754,5.84139 -1.122753,2.92585 -5.478177,2.64223 -7.141127,-0.46502 z M 52.023104,134.70768 C 52.074544,106.41622 56.451141,83.365767 65.40878,64.208637 70.932339,52.395756 79.836719,39.087861 86.326466,32.946457 l 3.931219,-3.720208 4.629073,5.720208 c 21.648492,26.751334 30.302522,54.007044 30.405402,95.761223 l 0.0412,16.70768 3.92275,1.48067 c 2.15752,0.81438 4.25752,1.14592 4.66667,0.73677 1.23369,-1.23369 0.83711,-27.10873 -0.63541,-41.45806 C 130.07299,76.851737 119.65028,50.979461 101.7423,29.870539 90.932938,17.129073 90.428545,17.019735 81.742199,25.535097 72.004902,35.080722 60.197028,52.923572 54.963717,65.999997 46.856558,86.257278 45.175942,95.516089 44.384765,124.28132 l -0.722858,26.28132 4.169046,-1.57364 4.169046,-1.57364 z"
         id="path3" />
      <path
         style="fill:#333333;fill-opacity:1"
         d="M 51.480179,444.33332 C 47.200696,426.39316 43.402811,403.65644 40.511389,378.66665 38.747807,363.42449 38.104328,341.15597 37.470553,273.43408 l -0.803887,-85.89925 -6,-0.10075 -6,-0.10075 -0.273547,-18.33334 -0.273547,-18.33333 h 6.60688 6.60688 l 0.0054,-20.33333 c 0.01071,-40.628173 9.12723,-71.614005 28.463152,-96.742485 7.351433,-9.553737 21.610555,-22.924179 24.447859,-22.924179 3.207673,0 19.754287,17.569081 27.000037,28.668451 16.20196,24.818913 24.08359,57.607845 24.08359,100.191833 v 11.13971 h 6 6 v 18.79931 18.79931 l -6,-0.59878 -6,-0.59877 -0.009,62.79946 c -0.01,70.47881 -1.49066,110.37815 -5.38141,144.99602 -2.56738,22.84314 -6.67974,48.60825 -9.3856,58.80344 l -1.32702,5 H 90.064915 54.899284 Z m 69.150921,4.66666 c 6.05514,-26.63905 10.41612,-62.28458 12.68287,-103.66666 1.41491,-25.83063 1.82323,-64.41835 0.69361,-65.54797 -0.36249,-0.36249 -2.46249,-0.39439 -4.66666,-0.0709 l -4.00759,0.58819 -0.006,24.182 c -0.0104,40.56652 -3.57722,86.55923 -9.38355,120.99679 -1.43564,8.5148 -2.61025,15.8648 -2.61025,16.33333 0,0.46853 -10.45028,0.85188 -23.222847,0.85188 H 66.887636 l -1.447115,-6.74767 C 57.307851,397.99765 52.077606,343.08504 52.018452,294.99999 l -0.01845,-15 h -4 -4 v 29.73347 c 0,50.1245 5.717089,103.697 14.577903,136.60355 l 1.524881,5.66297 h 29.923204 29.9232 z m -16.21011,-23.82272 c 7.12198,-3.64221 7.5175,-5.32267 7.54936,-32.07498 0.0296,-24.85967 0.0244,-24.90396 -3.42221,-28.99999 l -3.45186,-4.1023 H 90.622491 c -13.373636,0 -14.758145,0.24438 -18.214808,3.21512 l -3.741018,3.21513 -0.41133,25.17257 c -0.395822,24.22355 -0.300911,25.31295 2.51749,28.89596 1.610851,2.04787 4.195949,4.23537 5.744663,4.86112 4.151801,1.67752 24.526932,1.54416 27.903502,-0.18263 z M 73.666665,343.66665 c -0.183334,-0.55 -0.333334,-25.6 -0.333334,-55.66666 v -54.66667 h -6.666666 -6.666667 v 56.06968 56.06968 l 7,-0.40301 c 3.85,-0.22166 6.85,-0.85302 6.666667,-1.40302 z m 43.666665,-54.33333 v -56 h -6 -6 v 56 56 h 6 6 z M 97.333331,239.66666 v -29 h 13.999999 14 v 28.51533 28.51533 l 4.00759,0.58819 c 2.20417,0.32351 4.30417,0.29161 4.66666,-0.0709 0.3625,-0.36249 0.65908,-20.05907 0.65908,-43.77018 v -43.11111 h 6 6 v -11.33334 -11.33333 h -5.56205 c -3.05913,0 -9.26013,-1.47946 -13.78,-3.2877 -11.37333,-4.55004 -33.34202,-6.53385 -52.426147,-4.73416 -14.643741,1.38095 -27.459551,4.36032 -28.919876,6.72317 -0.441448,0.71428 -3.767223,1.29869 -7.390611,1.29869 h -6.587977 v 11.33333 11.33334 h 6 6 v 43.33333 43.33333 h 4 4 v -28.66667 -28.66666 h 13.999999 14 v 28.5689 c 0,32.08483 -0.983296,29.4311 10.905183,29.4311 h 6.42815 z m -11.772918,-70 c -1.755593,-3.41344 -0.459639,-5.66667 3.259209,-5.66667 3.832263,0 5.511521,3.19115 3.166284,6.01698 -2.203786,2.6554 -4.956797,2.50531 -6.425493,-0.35031 z M 52.483291,127.18759 C 53.841158,95.695779 58.822194,75.158141 69.856394,55.555399 75.46654,45.588728 86.704136,31.472417 89.384952,31.024244 c 2.849543,-0.47638 15.199488,15.981498 21.243058,28.309087 10.11828,20.639115 14.69441,43.313309 14.70156,72.844489 0.003,13.62614 0.28732,15.59269 2.33709,16.18206 1.28334,0.369 3.38334,1.10317 4.66667,1.63149 2.14364,0.8825 2.33333,-0.30181 2.33333,-14.56794 0,-49.336864 -11.76238,-83.910271 -37.794501,-111.090098 -2.98506,-3.116666 -6.07124,-5.666666 -6.858177,-5.666666 -0.786936,0 -4.761376,3.45 -8.832088,7.666666 -25.207942,26.111766 -36.856651,56.507659 -37.182369,97.022878 -0.239016,29.7306 -0.598723,27.30498 3.802812,25.64359 l 3.802338,-1.43522 z"
         id="path2" />
    </g>
  </g>
</svg>
