<?xml version="1.0" standalone="no"?>
<svg version="1.0" xmlns="http://www.w3.org/2000/svg"
 width="1024.000000pt" height="1024.000000pt" viewBox="0 0 1024.000000 1024.000000"
 preserveAspectRatio="xMidYMid meet">

<g transform="translate(0.000000,1024.000000) scale(0.100000,-0.100000)"
fill="#000000" stroke="none">
<path d="M0 5120 l0 -5120 5120 0 5120 0 0 5120 0 5120 -5120 0 -5120 0 0
-5120z m7278 3174 c519 -77 925 -378 1112 -826 53 -127 88 -262 100 -384 9
-96 15 -3314 6 -3314 -3 0 -47 26 -98 58 -52 32 -142 85 -201 117 -103 56
-107 60 -107 92 l0 33 125 0 c163 0 165 1 165 137 0 136 4 133 -177 133 l-143
0 0 174 c0 181 -6 218 -38 235 -10 6 -78 11 -149 12 l-131 1 -6 29 c-5 29 -6
29 -78 29 l-73 0 -18 54 c-12 36 -15 67 -11 99 l7 47 51 0 c56 0 76 12 76 46
0 32 -19 42 -80 46 -53 3 -54 4 -61 37 -4 18 -13 37 -21 42 -7 5 -49 6 -93 2
l-80 -6 5 84 5 84 228 5 c212 5 230 6 243 24 8 11 14 32 14 47 0 27 -34 79
-52 79 -7 0 -6 -5 2 -14 9 -12 8 -15 -7 -15 -10 1 -111 -3 -225 -7 l-208 -7 0
39 c-1 55 -32 120 -69 138 -24 13 -63 16 -196 15 -215 -2 -211 -4 -207 119 l3
91 156 3 156 3 20 27 c27 36 15 78 -26 92 -22 8 -31 6 -51 -13 -25 -23 -27
-23 -200 -18 -96 3 -179 8 -185 12 -6 3 -11 13 -11 21 0 11 16 14 70 14 l70 0
0 125 0 125 28 0 c34 0 52 16 52 46 0 44 -24 54 -131 54 l-99 0 0 178 c0 184
-4 202 -41 202 -41 0 -49 -35 -49 -212 l0 -168 -79 0 c-74 0 -81 -2 -100 -26
-12 -15 -21 -29 -21 -33 1 -19 22 -35 47 -36 27 0 28 -2 28 -50 0 -39 -3 -49
-15 -47 -8 2 -68 6 -132 9 l-118 6 0 83 0 84 31 0 c64 0 69 9 69 128 0 71 -4
112 -12 120 -7 7 -36 12 -65 12 l-53 0 0 89 c0 85 -1 91 -26 110 -23 18 -41
21 -125 21 l-99 0 0 35 c0 32 3 35 40 45 22 6 44 19 50 30 5 10 10 53 10 94
l0 76 191 2 192 3 20 27 c18 23 19 31 8 54 l-12 26 -142 -2 c-78 -2 -167 -2
-199 -2 l-56 2 -4 101 c-3 96 -4 102 -31 125 -23 20 -39 24 -88 24 l-59 0 0
89 c0 74 -3 92 -21 115 -20 25 -24 26 -127 26 -59 0 -144 3 -190 7 l-83 6 3
91 3 91 195 3 c169 2 197 4 208 19 16 23 15 48 -4 67 -13 13 -46 16 -210 16
l-194 0 0 74 c0 40 -5 87 -11 105 -14 39 -51 51 -79 26 -16 -15 -20 -34 -22
-114 l-3 -96 -204 -3 c-209 -2 -231 -7 -231 -43 0 -45 19 -49 231 -49 l199 0
0 -100 0 -100 -192 0 c-239 0 -228 6 -228 -132 l0 -98 -64 0 c-54 0 -70 -4
-93 -24 -27 -23 -28 -29 -31 -124 l-4 -99 -93 -7 c-52 -4 -141 -6 -198 -5 -58
1 -110 -2 -116 -5 -6 -4 -11 -18 -11 -31 0 -48 16 -52 224 -60 l196 -7 0 -81
c0 -91 14 -117 62 -117 26 0 28 -3 28 -40 l0 -40 -98 0 c-138 0 -142 -4 -142
-126 l0 -94 -53 0 c-29 0 -58 -5 -65 -12 -13 -13 -17 -202 -6 -232 4 -11 19
-16 45 -16 l39 0 0 -85 0 -85 -99 0 c-54 0 -113 -3 -130 -6 -31 -6 -31 -6 -31
37 0 38 4 46 30 61 33 19 39 48 14 72 -11 12 -36 16 -90 16 l-74 0 0 178 c0
187 -3 202 -45 202 -36 0 -45 -20 -45 -95 0 -40 -3 -120 -7 -178 l-6 -107 -92
0 c-101 0 -115 -7 -115 -56 0 -32 13 -44 51 -44 18 0 19 -8 19 -125 l0 -125
70 0 c39 0 70 -4 70 -9 0 -25 -37 -32 -204 -38 l-175 -6 -20 24 c-16 20 -23
22 -47 14 -25 -9 -29 -16 -32 -52 -5 -66 13 -73 190 -73 l148 0 0 -93 c0 -93
0 -94 -27 -106 -16 -7 -44 -15 -63 -17 -40 -5 -89 -26 -140 -59 -23 -15 -55
-25 -92 -27 -64 -5 -66 -2 -49 60 11 37 4 40 -33 11 -33 -26 -52 -62 -61 -116
-6 -38 -10 -43 -33 -44 -15 0 -104 -2 -197 -5 -173 -5 -233 2 -220 28 4 7 -5
0 -19 -15 -33 -35 -33 -71 -1 -102 24 -25 26 -25 217 -25 106 0 203 -3 214 -6
20 -5 22 -14 26 -82 5 -84 -6 -132 -28 -132 -8 0 -26 -11 -39 -24 -13 -13 -26
-21 -29 -18 -3 3 -6 27 -6 54 0 46 -1 48 -29 48 -34 0 -61 -30 -61 -67 0 -21
-4 -23 -60 -23 -56 0 -60 -2 -66 -26 -10 -38 16 -58 73 -59 l48 0 -3 -100 c-2
-55 -4 -101 -5 -102 -1 -1 -31 -2 -67 -4 -72 -2 -100 -12 -100 -34 0 -12 -21
-15 -115 -15 -124 0 -175 -13 -194 -48 -7 -13 -11 -91 -11 -201 l0 -181 -142
0 c-181 0 -178 2 -178 -130 0 -89 2 -98 24 -119 21 -20 32 -22 134 -20 61 1
115 -2 121 -5 6 -4 11 -19 11 -34 0 -24 -15 -36 -148 -111 -81 -47 -171 -100
-200 -118 -29 -18 -55 -33 -57 -33 -3 0 -4 757 -2 1683 3 1876 -3 1706 73
1937 77 232 227 440 439 612 140 113 312 197 517 252 202 55 143 54 2047 55
1550 1 1776 -1 1869 -15z m-1533 -695 c23 -3 -22 -7 -107 -8 -142 -1 -147 -2
-143 -21 6 -30 -30 -40 -180 -50 -71 -5 -167 -12 -212 -16 l-83 -6 0 49 c0 27
3 53 7 57 9 9 662 5 718 -5z m-40 -207 c22 -8 5 -9 -66 -5 -53 3 -112 3 -131
-1 -34 -6 -34 -7 -37 -59 -1 -28 -4 -60 -7 -69 -7 -23 5 -60 17 -53 5 4 9 -1
9 -9 0 -9 9 -16 20 -16 33 0 23 -18 -12 -22 -30 -3 -33 -6 -36 -40 l-3 -37
-62 -5 c-34 -3 -116 -8 -182 -11 -66 -3 -174 -13 -240 -21 -66 -7 -125 -14
-132 -14 -10 0 -13 38 -13 169 l0 169 53 7 c193 27 311 34 542 30 138 -2 264
-8 280 -13z m-157 -529 c17 -9 32 -19 32 -24 0 -4 -12 -1 -27 7 -31 15 -108
19 -99 5 4 -5 2 -11 -3 -13 -5 -1 -11 -10 -13 -18 -2 -9 -26 -19 -60 -26 -31
-7 -74 -24 -95 -38 -21 -14 -41 -26 -45 -26 -5 0 -8 18 -8 39 0 53 37 97 93
110 54 12 183 3 225 -16z m-408 -132 c0 -15 -42 -41 -66 -41 -11 0 -24 -3 -28
-7 -4 -5 -22 -8 -39 -9 -18 0 -45 -4 -62 -7 -16 -4 -47 -10 -69 -12 -21 -3
-42 -7 -46 -10 -5 -3 -32 -7 -62 -10 -29 -3 -59 -8 -65 -10 -10 -3 -13 12 -13
55 l0 60 225 0 c134 0 225 -4 225 -9z m988 -3 c-4 -10 -53 -14 -194 -16 -192
-3 -234 1 -234 18 0 6 81 10 216 10 168 0 215 -3 212 -12z m-584 -87 c34 -18
139 -96 238 -179 274 -229 779 -634 948 -762 47 -35 147 -113 223 -173 126
-100 144 -119 206 -211 38 -55 107 -155 155 -220 48 -65 91 -128 97 -140 7
-16 5 -15 -8 4 -10 13 -54 73 -98 133 -44 59 -114 155 -155 212 -74 102 -180
203 -200 190 -6 -4 -9 -2 -8 3 4 14 -124 112 -137 105 -5 -4 -7 -3 -3 2 10 11
-52 56 -65 48 -6 -3 -7 -1 -3 5 3 6 2 13 -4 17 -5 3 -10 3 -11 -2 0 -4 -2 -15
-4 -24 -2 -12 4 -15 24 -12 24 3 24 2 -4 -7 -22 -7 -33 -6 -46 6 -14 12 -18
13 -25 2 -4 -7 -4 -10 1 -6 13 12 39 -22 27 -34 -8 -8 -20 -3 -44 17 -18 16
-32 32 -31 37 2 4 0 7 -5 5 -10 -3 -160 108 -363 268 -42 33 -122 96 -179 140
-56 44 -108 85 -114 90 -6 6 -29 23 -51 39 -22 17 -110 85 -196 153 -86 67
-167 127 -181 132 -22 8 -82 15 -115 12 -10 -1 -13 -89 -13 -406 l0 -405 28
-16 c99 -62 115 -78 41 -44 -24 11 -50 20 -56 20 -10 0 -13 -58 -13 -259 l0
-260 23 -7 c47 -14 737 -350 737 -358 0 -7 -206 89 -545 254 -88 43 -171 79
-185 81 l-25 4 -3 -254 -2 -254 -182 6 c-100 4 -285 7 -412 7 -153 0 -226 4
-216 10 13 8 13 10 -1 10 -9 0 -20 8 -24 18 -5 14 -4 15 6 5 19 -19 26 -16 24
8 -2 25 -22 39 -43 31 -9 -3 -46 -22 -83 -43 -61 -33 -129 -54 -129 -40 0 14
133 87 418 232 130 67 239 123 242 125 9 10 -49 -15 -119 -51 -39 -19 -71 -32
-71 -28 0 5 -4 4 -8 -2 -4 -5 -17 -16 -30 -23 -21 -12 -22 -11 -10 7 7 11 15
18 19 15 9 -5 33 25 26 33 -4 3 -2 12 3 19 6 6 9 18 8 25 -2 7 7 18 20 24 12
5 22 13 22 18 0 4 5 5 10 2 6 -3 10 -1 10 4 0 6 -3 11 -7 11 -5 0 -9 11 -9 25
-2 21 1 23 17 14 15 -7 21 -6 25 6 3 8 12 15 20 15 8 0 14 5 14 10 0 13 -13
13 -27 -1 -7 -7 -12 -6 -17 6 -3 9 -2 13 4 10 6 -4 10 6 10 21 0 24 2 25 17
13 15 -13 16 -11 10 11 -6 24 -6 24 10 5 15 -20 15 -20 8 3 -8 29 2 62 21 62
10 0 13 8 10 25 -3 18 0 25 10 25 11 0 13 6 9 19 -4 14 0 23 14 31 11 5 18 16
15 24 -3 7 2 19 11 26 8 7 15 18 15 24 0 6 -5 4 -10 -4 -6 -10 -10 -11 -10 -3
0 7 9 18 19 25 10 6 17 18 14 25 -3 8 3 21 13 29 18 14 18 14 -4 4 -13 -6 -27
-21 -32 -33 -7 -17 -9 -18 -9 -5 -1 14 -31 2 -145 -58 -80 -41 -147 -71 -150
-66 -5 8 50 43 333 208 95 55 116 85 127 174 6 54 5 57 -45 130 -28 41 -65 91
-81 110 -16 19 -32 51 -35 70 -3 19 -2 29 1 22 5 -10 9 -10 20 -1 12 10 12 14
2 20 -10 7 -10 9 0 9 6 0 12 7 12 15 0 8 5 15 10 15 7 0 7 6 0 19 -13 26 -13
31 4 31 7 0 19 7 26 15 10 12 10 15 0 15 -7 0 -3 9 9 19 14 13 23 32 24 55 1
20 5 36 9 36 4 0 5 6 2 14 -3 8 3 23 14 34 11 11 17 23 14 27 -13 13 -7 30 23
58 44 42 -464 -343 -716 -543 -80 -63 -207 -162 -283 -220 -316 -240 -413
-317 -451 -356 -22 -22 -90 -113 -152 -201 -110 -157 -238 -319 -283 -358 -15
-13 -21 -14 -16 -5 4 8 -2 4 -14 -10 l-21 -25 6 25 c15 53 55 123 205 350 86
129 173 263 193 297 38 63 109 124 377 328 369 280 713 555 899 719 147 129
237 203 281 231 100 63 199 68 304 16z m-589 -121 c13 -21 -55 -33 -223 -39
l-172 -6 0 28 0 27 194 0 c119 0 197 -4 201 -10z m1299 4 c9 -3 14 -9 12 -13
-7 -10 -396 -1 -396 9 0 11 357 14 384 4z m-1525 -191 c-8 -9 -26 -28 -41 -43
-26 -26 -27 -26 -32 -6 -3 12 -6 31 -6 44 0 20 5 22 46 22 42 0 45 -2 33 -17z
m-574 -82 c31 -7 16 -9 -65 -9 -67 0 -96 3 -80 8 33 11 95 11 145 1z m2578 -8
c-29 -2 -77 -2 -105 0 -29 2 -6 3 52 3 58 0 81 -1 53 -3z m-2284 -169 c-7 -8
-64 -52 -127 -97 -63 -45 -145 -107 -182 -138 l-67 -57 7 34 c9 41 51 113 92
159 49 56 175 110 267 114 20 1 22 -1 10 -15z m2033 -4 c77 -23 145 -67 194
-123 40 -46 73 -111 74 -142 0 -11 -11 3 -24 32 -35 73 -95 127 -202 179 -50
24 -96 44 -100 44 -5 0 -18 7 -28 15 -19 15 -19 15 1 15 12 0 50 -9 85 -20z
m-1455 -212 c69 -94 90 -125 67 -106 -11 10 -30 19 -42 21 -11 2 -29 10 -39
18 -10 9 -40 24 -67 34 l-50 18 39 34 c21 18 42 33 45 33 4 0 25 -24 47 -52z
m868 18 c30 -24 30 -25 10 -40 -11 -8 -29 -16 -40 -16 -20 0 -64 -25 -77 -44
-8 -13 -58 -15 -50 -2 24 40 104 126 116 126 6 0 25 -11 41 -24z m48 -87 c20
-5 37 -13 37 -16 0 -3 -10 -15 -23 -27 -18 -17 -33 -21 -70 -18 -52 4 -57 15
-25 49 24 26 29 27 81 12z m-983 -13 c9 -12 4 -17 -30 -26 -36 -10 -45 -9 -61
6 -15 13 -17 19 -7 26 21 13 85 9 98 -6z m-127 -44 c40 -36 2 -132 -53 -132
-11 0 -32 11 -45 25 -71 70 23 173 98 107z m1261 3 c38 -38 26 -104 -24 -125
-23 -9 -34 -9 -58 4 -47 24 -55 82 -16 120 20 20 78 21 98 1z m640 -167 c-5
-8 11 -12 29 -9 5 1 5 -4 1 -10 -5 -8 -2 -10 9 -6 9 3 18 0 21 -9 9 -24 -18
-16 -62 18 -32 25 -39 35 -30 45 9 11 13 10 23 -4 7 -10 11 -21 9 -25z m-2264
-621 c12 -4 11 -6 -3 -6 -27 -1 -57 18 -57 36 0 14 3 13 23 -4 12 -11 29 -23
37 -26z m3005 -91 l17 -31 -20 24 c-11 14 -27 38 -37 55 l-17 31 20 -24 c11
-14 27 -38 37 -55z m35 -56 c6 -11 8 -20 6 -20 -3 0 -10 9 -16 20 -6 11 -8 20
-6 20 3 0 10 -9 16 -20z m30 -50 c6 -11 8 -20 6 -20 -3 0 -10 9 -16 20 -6 11
-8 20 -6 20 3 0 10 -9 16 -20z m-4384 -93 c2 -1 0 -8 -4 -14 -4 -7 -41 -15
-82 -18 -41 -4 -86 -8 -100 -11 -14 -3 -34 -6 -45 -8 -11 -2 -27 -7 -36 -10
-13 -6 -18 0 -22 26 -2 18 -2 37 1 42 4 8 280 1 288 -7z m4804 -7 c0 -19 -7
-20 -139 -20 -83 0 -142 4 -146 10 -15 24 12 30 146 30 132 0 139 -1 139 -20z
m-783 -187 c34 -21 94 -58 135 -82 66 -40 172 -104 698 -425 91 -55 237 -144
325 -197 l159 -97 -3 -43 c-1 -24 -5 -46 -7 -48 -2 -2 -56 30 -121 71 -245
156 -330 208 -336 208 -4 0 -28 15 -54 33 -27 17 -54 33 -61 35 -21 4 -62 33
-62 44 0 5 -4 7 -8 4 -11 -7 -72 31 -72 44 0 5 -3 9 -7 9 -21 -3 -33 2 -28 12
4 6 0 9 -11 7 -11 -2 -18 2 -17 9 2 7 -3 10 -11 7 -7 -3 -19 3 -27 12 -12 16
-12 17 4 11 9 -3 17 -2 17 3 0 5 -11 12 -25 16 -14 3 -22 11 -18 17 4 6 0 8
-10 4 -10 -4 -32 3 -52 14 -19 12 -35 18 -35 13 0 -4 -8 0 -18 9 -9 8 -20 16
-25 16 -4 0 -55 29 -112 63 -58 35 -129 77 -159 93 -30 17 -69 41 -86 55 -18
14 -46 28 -64 33 -17 4 -767 4 -1666 1 -1614 -6 -1636 -7 -1675 -27 -22 -11
-105 -59 -185 -107 -271 -163 -1218 -720 -1224 -720 -3 0 -6 23 -6 50 0 50 0
51 54 85 29 19 186 111 347 206 162 94 317 186 344 204 55 34 321 193 535 317
l135 78 1685 0 1685 0 62 -37z m-3652 7 c-11 -5 -35 -9 -53 -9 -18 -1 -40 -5
-50 -10 -9 -4 -35 -17 -57 -27 -22 -10 -45 -23 -51 -29 -7 -5 -24 -19 -39 -30
-16 -11 -42 -32 -59 -47 -17 -15 -34 -28 -39 -28 -4 0 -21 -13 -38 -30 -18
-16 -35 -27 -40 -24 -5 3 -9 0 -9 -7 0 -7 -3 -9 -6 -6 -4 3 -18 -3 -32 -13
-14 -11 -27 -18 -29 -16 -6 6 36 236 47 257 12 22 45 25 295 26 108 1 172 -2
160 -7z m4223 -12 c6 -6 12 -18 12 -27 0 -9 -3 -12 -8 -6 -4 6 -29 11 -57 12
-105 3 -364 29 -372 37 -12 12 410 -4 425 -16z m-4780 0 c-6 -17 -98 -19 -98
-2 0 10 15 14 51 14 34 0 49 -4 47 -12z m-38 -212 c0 -8 -6 -18 -12 -23 -7 -4
-93 -12 -190 -18 -173 -10 -177 -10 -182 10 -3 11 -6 23 -6 27 0 12 42 15 218
17 144 1 172 -1 172 -13z m5355 -11 c0 -19 -7 -20 -185 -20 -185 0 -185 0
-188 23 l-3 22 188 -2 c180 -3 188 -4 188 -23z m-2740 -104 c109 -54 174 -155
175 -269 0 -72 -14 -110 -61 -169 -32 -40 -135 -126 -162 -136 -7 -2 30 -48
86 -105 l99 -101 15 37 c8 20 17 51 20 68 l5 33 150 3 149 3 -7 -40 c-17 -108
-82 -256 -129 -295 -11 -9 1 -24 63 -80 99 -87 149 -140 134 -140 -7 0 -53
-27 -102 -60 -49 -33 -95 -60 -103 -60 -7 0 -50 34 -95 75 l-80 75 -49 -30
c-152 -94 -369 -105 -539 -26 -64 30 -150 116 -181 182 -85 185 -33 362 146
499 l49 38 -39 49 c-71 90 -85 196 -40 301 54 126 172 190 338 183 80 -3 102
-8 158 -35z m-1264 15 c67 -15 153 -53 198 -87 35 -28 40 -24 43 29 l3 47 68
3 67 3 0 -211 0 -210 -140 0 -140 0 0 46 c0 38 -5 51 -29 73 -35 32 -117 61
-175 61 -59 0 -127 -37 -149 -80 -16 -32 -17 -63 -15 -315 3 -256 5 -282 22
-308 35 -52 106 -73 187 -56 87 19 139 85 139 178 l0 31 -90 0 -90 0 0 120 0
120 235 0 235 0 0 -152 c-1 -257 -23 -344 -112 -443 -83 -92 -203 -139 -353
-139 -92 0 -176 19 -245 54 -63 33 -157 127 -187 188 l-28 57 -3 333 c-3 285
-1 342 13 390 50 173 208 279 420 281 33 0 90 -6 126 -13z m2861 -3 c2 -5 2
-100 0 -213 l-3 -205 -104 0 -105 -1 0 83 0 83 -92 0 -93 0 3 -367 c2 -203 5
-374 7 -380 3 -8 21 -13 45 -13 l40 0 0 -99 c0 -54 -3 -113 -6 -131 l-7 -32
-238 3 -239 4 0 128 0 127 49 0 50 0 3 143 c2 78 2 249 0 380 l-3 237 -89 0
-89 0 -3 -82 c-2 -59 -7 -83 -15 -82 -7 1 -56 2 -108 3 l-95 1 0 205 0 204 88
4 c186 7 1001 7 1004 0z m-2259 -1517 c158 -78 327 -44 466 92 l64 62 54 -60
c104 -115 252 -162 393 -125 84 22 142 56 210 126 l55 57 29 -40 c16 -22 55
-60 88 -83 115 -86 236 -114 502 -117 101 -2 179 -6 172 -10 -6 -4 -75 -8
-152 -8 -78 0 -166 -5 -195 -10 -30 -6 -124 -10 -209 -9 -85 2 -218 1 -295 -1
-218 -7 -471 -4 -572 5 -58 5 -93 4 -93 -2 0 -5 -116 -7 -302 -4 -307 5 -354
5 -623 3 -82 -1 -181 3 -220 8 -38 5 -135 10 -215 10 -80 1 -163 5 -185 10
-28 7 -1 8 90 5 155 -6 367 8 450 30 105 27 184 72 255 145 l65 67 58 -63 c35
-38 79 -73 110 -88z m2110 -93 c-7 -2 -19 -2 -25 0 -7 3 -2 5 12 5 14 0 19 -2
13 -5z m-1020 -170 c-244 -2 -642 -2 -885 0 -244 1 -45 2 442 2 487 0 686 -1
443 -2z m514 1 c-3 -3 -12 -4 -19 -1 -8 3 -5 6 6 6 11 1 17 -2 13 -5z m-1294
-161 c-7 -2 -19 -2 -25 0 -7 3 -2 5 12 5 14 0 19 -2 13 -5z m130 0 c-18 -2
-48 -2 -65 0 -18 2 -4 4 32 4 36 0 50 -2 33 -4z m80 0 c-7 -2 -21 -2 -30 0
-10 3 -4 5 12 5 17 0 24 -2 18 -5z"/>
<path d="M4722 7988 c-14 -14 -16 -57 -3 -77 5 -8 24 -14 42 -14 51 0 78 53
43 87 -18 19 -65 21 -82 4z"/>
<path d="M6032 7988 c-7 -7 -12 -24 -12 -38 0 -14 5 -31 12 -38 7 -7 24 -12
38 -12 14 0 31 5 38 12 7 7 12 24 12 38 0 14 -5 31 -12 38 -7 7 -24 12 -38 12
-14 0 -31 -5 -38 -12z"/>
<path d="M4132 7223 c-7 -3 -18 -16 -23 -30 -13 -36 12 -73 49 -73 35 0 52 16
52 50 0 43 -39 69 -78 53z"/>
<path d="M6647 7212 c-31 -34 -13 -102 26 -102 27 0 57 32 57 60 0 18 -8 34
-22 44 -29 21 -41 20 -61 -2z"/>
<path d="M5123 7284 c-8 -4 -13 -25 -13 -55 l0 -49 41 0 40 0 -3 53 c-3 47 -5
52 -28 54 -14 1 -31 -1 -37 -3z"/>
<path d="M5252 7281 c-9 -5 -12 -24 -10 -52 3 -41 5 -44 33 -44 26 0 30 5 38
38 13 54 -19 85 -61 58z"/>
<path d="M5372 7238 l3 -53 35 0 35 0 0 50 0 50 -38 3 -38 3 3 -53z"/>
<path d="M4985 7260 c-4 -12 -4 -37 0 -56 5 -31 9 -34 41 -34 l35 0 -3 53 c-3
50 -4 52 -35 55 -25 3 -33 -1 -38 -18z"/>
<path d="M5066 5983 c-6 -14 -5 -15 5 -6 7 7 10 15 7 18 -3 3 -9 -2 -12 -12z"/>
<path d="M6686 5692 c-3 -6 -1 -14 5 -17 15 -10 25 3 12 16 -7 7 -13 7 -17 1z"/>
<path d="M4967 5193 c-4 -3 -7 -11 -7 -17 0 -6 5 -5 12 2 6 6 9 14 7 17 -3 3
-9 2 -12 -2z"/>
<path d="M4870 4959 c0 -5 5 -7 10 -4 6 3 10 8 10 11 0 2 -4 4 -10 4 -5 0 -10
-5 -10 -11z"/>
<path d="M4592 4703 c-10 -4 -7 -9 8 -20 12 -8 24 -12 27 -9 4 3 1 6 -6 6 -7
0 -10 4 -6 9 7 12 -6 20 -23 14z"/>
<path d="M7853 4015 c0 -8 4 -12 8 -9 5 3 18 0 29 -6 11 -6 20 -8 20 -6 0 3
-13 12 -28 20 -24 13 -29 13 -29 1z"/>
<path d="M8130 3851 c0 -6 4 -11 9 -11 5 0 17 -8 27 -17 12 -12 16 -13 13 -4
-7 19 -49 47 -49 32z"/>
<path d="M5335 3941 c-26 -11 -51 -40 -60 -69 -4 -16 1 -36 19 -66 40 -68 46
-70 99 -36 82 52 97 122 34 160 -34 21 -59 24 -92 11z"/>
<path d="M5217 3395 c-71 -65 -73 -114 -7 -189 44 -50 120 -72 193 -56 28 6
61 17 73 25 21 14 21 15 -40 77 -34 35 -87 91 -117 125 l-54 62 -48 -44z"/>
<path d="M5470 2959 c-36 -10 -54 -18 -40 -18 14 0 50 8 80 19 70 23 45 23
-40 -1z"/>
<path d="M5936 2965 c-11 -8 -18 -17 -15 -19 2 -2 15 4 28 15 27 22 15 26 -13
4z"/>
<path d="M5880 2928 c0 -5 -4 -6 -10 -3 -6 3 -7 -1 -4 -10 6 -14 8 -14 25 1
23 21 23 21 4 21 -8 0 -15 -4 -15 -9z"/>
<path d="M4510 3072 c0 -19 -114 -92 -167 -107 -30 -9 -53 -18 -51 -21 12 -11
113 31 167 71 52 38 75 65 56 65 -3 0 -5 -4 -5 -8z"/>
<path d="M4083 2938 c7 -4 48 -8 92 -8 44 0 85 4 92 8 6 4 -35 7 -92 7 -57 0
-98 -3 -92 -7z"/>
<path d="M6563 2943 c9 -2 25 -2 35 0 9 3 1 5 -18 5 -19 0 -27 -2 -17 -5z"/>
<path d="M6648 2943 c7 -3 16 -2 19 1 4 3 -2 6 -13 5 -11 0 -14 -3 -6 -6z"/>
<path d="M6718 2943 c6 -2 18 -2 25 0 6 3 1 5 -13 5 -14 0 -19 -2 -12 -5z"/>
<path d="M5413 2602 c-3 -12 -27 -30 -61 -46 -32 -14 -52 -26 -47 -26 200 -10
235 -10 235 -2 0 5 -10 12 -22 15 -13 4 -40 22 -61 42 -35 33 -39 35 -44 17z"/>
<path d="M6100 2593 c-1 -16 -56 -47 -104 -59 -47 -11 -39 -12 109 -13 l160 0
-50 23 c-27 12 -56 30 -64 39 -13 17 -51 24 -51 10z"/>
<path d="M4684 2579 c-3 -6 -30 -22 -58 -35 l-51 -23 140 1 c134 0 138 1 96
14 -25 7 -54 23 -66 34 -24 22 -50 26 -61 9z"/>
</g>
</svg>
